<svg width="6" height="5" viewBox="0 0 6 5" fill="none" xmlns="http://www.w3.org/2000/svg">
<g id="Group 218">
<path id="Vector" d="M5.15382 2.45801C4.96001 2.0497 4.72937 1.7167 4.4619 1.459L4.18138 1.73952C4.41013 1.95812 4.60938 2.2441 4.78167 2.60026C4.32296 3.54965 3.67184 4.00064 2.782 4.00064C2.5149 4.00064 2.26887 3.95951 2.04393 3.87725L1.73998 4.1812C2.0524 4.32546 2.39974 4.39759 2.782 4.39759C3.84165 4.39759 4.63226 3.84571 5.15382 2.74195C5.17479 2.69756 5.18566 2.64908 5.18566 2.59998C5.18566 2.55089 5.17479 2.5024 5.15382 2.45801ZM4.80334 0.69023L4.56831 0.454922C4.56421 0.450821 4.55935 0.447568 4.55399 0.445348C4.54864 0.443129 4.5429 0.441986 4.5371 0.441986C4.53131 0.441986 4.52557 0.443129 4.52021 0.445348C4.51486 0.447568 4.50999 0.450821 4.5059 0.454922L3.90291 1.05764C3.57045 0.887826 3.19682 0.802921 2.782 0.802921C1.72234 0.802921 0.931733 1.3548 0.410175 2.45857C0.38921 2.50296 0.378338 2.55144 0.378338 2.60053C0.378338 2.64963 0.38921 2.69811 0.410175 2.7425C0.618541 3.18136 0.869396 3.53313 1.16274 3.7978L0.579323 4.38105C0.571057 4.38932 0.566414 4.40054 0.566414 4.41223C0.566414 4.42392 0.571057 4.43514 0.579323 4.44341L0.814685 4.67877C0.822956 4.68704 0.83417 4.69168 0.845863 4.69168C0.857556 4.69168 0.86877 4.68704 0.877041 4.67877L4.80334 0.75264C4.80744 0.748544 4.81069 0.743679 4.81291 0.738325C4.81513 0.732971 4.81627 0.727231 4.81627 0.721435C4.81627 0.715639 4.81513 0.709899 4.81291 0.704545C4.81069 0.69919 4.80744 0.694326 4.80334 0.69023ZM0.782322 2.60026C1.24158 1.65087 1.8927 1.19988 2.782 1.19988C3.08269 1.19988 3.3561 1.25148 3.60414 1.3564L3.21656 1.74399C3.033 1.64605 2.82283 1.6097 2.61704 1.64031C2.41126 1.67091 2.22076 1.76684 2.07364 1.91396C1.92653 2.06107 1.8306 2.25157 1.79999 2.45736C1.76939 2.66314 1.80574 2.87331 1.90367 3.05687L1.44375 3.51679C1.1892 3.29212 0.969775 2.98773 0.782322 2.60026ZM2.14245 2.60026C2.14255 2.50304 2.16558 2.40721 2.20967 2.32057C2.25376 2.23392 2.31766 2.15889 2.39619 2.10158C2.47473 2.04428 2.56567 2.0063 2.66163 1.99074C2.7576 1.97518 2.85588 1.98248 2.9485 2.01204L2.17173 2.78881C2.15226 2.72786 2.14238 2.66425 2.14245 2.60026Z" fill="black" fill-opacity="0.44"/>
<path id="Vector_2" d="M2.75992 3.21775C2.74084 3.21775 2.72204 3.21686 2.7034 3.21516L2.41219 3.50637C2.58734 3.57345 2.77818 3.58835 2.96162 3.54929C3.14506 3.51022 3.31326 3.41885 3.44589 3.28623C3.57851 3.1536 3.66988 2.9854 3.70894 2.80196C3.74801 2.61852 3.7331 2.42769 3.66603 2.25253L3.37481 2.54375C3.37652 2.56238 3.37741 2.58118 3.37741 2.60026C3.37745 2.68136 3.36151 2.76167 3.33049 2.83661C3.29947 2.91155 3.25399 2.97964 3.19664 3.03699C3.1393 3.09433 3.07121 3.13982 2.99627 3.17083C2.92133 3.20185 2.84102 3.21779 2.75992 3.21775Z" fill="black" fill-opacity="0.44"/>
</g>
</svg>
