<svg width="14" height="14" viewBox="0 0 7 7" fill="none" xmlns="http://www.w3.org/2000/svg">
<g id="person_24px">
<path id="icon/social/person_24px" fill-rule="evenodd" clip-rule="evenodd" d="M3.782 1.73573C3.25079 1.73573 2.82053 2.18082 2.82053 2.73035C2.82053 3.27988 3.25079 3.72497 3.782 3.72497C4.31321 3.72497 4.74346 3.27988 4.74346 2.73035C4.74346 2.18082 4.31321 1.73573 3.782 1.73573ZM4.26273 2.73038C4.26273 2.45686 4.0464 2.23307 3.782 2.23307C3.5176 2.23307 3.30127 2.45686 3.30127 2.73038C3.30127 3.0039 3.5176 3.22769 3.782 3.22769C4.0464 3.22769 4.26273 3.0039 4.26273 2.73038ZM5.22419 5.21692C5.17612 5.04038 4.43099 4.71961 3.782 4.71961C3.13541 4.71961 2.39508 5.03789 2.3398 5.21692H5.22419ZM1.85907 5.21692C1.85907 4.5555 3.14022 4.2223 3.782 4.2223C4.42377 4.2223 5.70493 4.5555 5.70493 5.21692V5.71423H1.85907V5.21692Z" fill="black" fill-opacity="0.44"/>
</g>
</svg>
